%FSTAX23Y23*%
%MOIN*%
%SFA1B1*%

%IPPOS*%
%ADD10R,0.070866X0.059055*%
%ADD16C,0.023622*%
%ADD17C,0.039370*%
%ADD18C,0.078740*%
%ADD19O,0.118110X0.078740*%
%ADD20O,0.078740X0.118110*%
%ADD21C,0.137795*%
%ADD22R,0.070866X0.098425*%
%ADD23O,0.070866X0.098425*%
%ADD24C,0.098425*%
%ADD25R,0.059055X0.023622*%
%ADD26O,0.059055X0.023622*%
%ADD27C,0.070866*%
%LNindicator-1*%
%LPD*%
G36*
X05118Y01968D02*
X05314Y01771D01*
X05354Y01732*
X05884*
X05906Y01699*
X05899Y01683*
X05907Y01663*
Y01663*
X05899Y01643*
X05907Y01624*
Y01623*
X05899Y01604*
X05855Y01586*
X05823Y01599*
Y01515*
Y01432*
X05879Y01455*
X05896Y01497*
X05944*
X05951Y015*
X05984Y01478*
Y01409*
X05974*
Y01322*
X05978*
Y01291*
Y01256*
X06023*
Y01251*
X06028*
Y01212*
X06069*
Y01251*
X06125*
Y01212*
X06166*
Y01251*
X06176*
Y01212*
X06216*
X0622Y01208*
Y01102*
X04724*
Y02677*
X05118*
Y01968*
G37*
%LNindicator-2*%
%LPC*%
G36*
X05696Y01297D02*
X05656Y0128D01*
X05654Y01277*
X05636*
X05603Y01291*
Y0122*
Y01149*
X05636Y01163*
X05654*
X05656Y0116*
X05696Y01143*
X05737Y0116*
X05754Y012*
Y0124*
X05737Y0128*
X05696Y01297*
G37*
G36*
X04939Y01512D02*
X04797D01*
X0481Y01479*
Y01459*
X04807Y01458*
X0479Y01417*
X04807Y01376*
X04848Y01359*
X04887*
X04928Y01376*
X04945Y01417*
X04928Y01458*
X04925Y01459*
Y01479*
X04939Y01512*
G37*
G36*
X05461Y0151D02*
X05382D01*
Y01432*
X05438Y01455*
X05461Y0151*
G37*
G36*
X05372D02*
X05294D01*
X05317Y01455*
X05372Y01432*
Y0151*
G37*
G36*
X04847Y01282D02*
Y01225D01*
X04904*
X04887Y01265*
X04847Y01282*
G37*
G36*
X04837Y01215D02*
X0478D01*
X04797Y01175*
X04837Y01158*
Y01215*
G37*
G36*
X055Y01297D02*
X05459Y0128D01*
X05442Y0124*
Y012*
X05459Y0116*
X055Y01143*
X0554Y0116*
X05541Y01163*
X0556*
X05593Y01149*
Y0122*
Y01291*
X0556Y01277*
X0556*
X05541*
X0554Y0128*
X055Y01297*
G37*
G36*
X04904Y01215D02*
X04847D01*
Y01158*
X04887Y01175*
X04904Y01215*
G37*
G36*
X04837Y01282D02*
X04797Y01265D01*
X0478Y01225*
X04837*
Y01282*
G37*
G36*
X06018Y01246D02*
X05978D01*
Y01212*
X06018*
Y01246*
G37*
G36*
X05813Y0151D02*
X05735D01*
X05758Y01455*
X05813Y01432*
Y0151*
G37*
G36*
X04939Y02312D02*
X04797D01*
X0481Y02279*
Y02259*
X04807Y02258*
X0479Y02217*
X04807Y02176*
X0481Y02175*
Y02155*
X04797Y02122*
X04939*
X04925Y02155*
Y02175*
X04928Y02176*
X04945Y02217*
X04928Y02258*
X04925Y02259*
Y02279*
X04939Y02312*
G37*
G36*
Y02112D02*
X04797D01*
X0481Y02079*
Y02059*
X04807Y02058*
X0479Y02017*
X04807Y01976*
X0481Y01975*
Y01955*
X04797Y01922*
X04939*
X04925Y01955*
Y01975*
X04928Y01976*
X04945Y02017*
X04928Y02058*
X04925Y02059*
Y02079*
X04939Y02112*
G37*
G36*
X04863Y0237D02*
X04848D01*
X0481Y02355*
X04797Y02322*
X04863*
Y0237*
G37*
G36*
X04842Y02627D02*
X04794Y02607D01*
X04774Y02559*
X04794Y0251*
X04842Y0249*
X0489Y0251*
X0491Y02559*
X0489Y02607*
X04842Y02627*
G37*
G36*
X04887Y0237D02*
X04873D01*
Y02322*
X04939*
X04925Y02355*
X04887Y0237*
G37*
G36*
X05382Y01599D02*
Y0152D01*
X05461*
X05438Y01576*
X05382Y01599*
G37*
G36*
X05372D02*
X05317Y01576D01*
X05294Y0152*
X05372*
Y01599*
G37*
G36*
X05813D02*
X05758Y01576D01*
X05735Y0152*
X05813*
Y01599*
G37*
G36*
X04939Y01912D02*
X04797D01*
X0481Y01879*
Y01859*
X04807Y01858*
X0479Y01817*
X04807Y01776*
X0481Y01775*
Y01755*
X04797Y01722*
X04939*
X04925Y01755*
Y01775*
X04928Y01776*
X04945Y01817*
X04928Y01858*
X04925Y01859*
Y01879*
X04939Y01912*
G37*
G36*
Y01712D02*
X04797D01*
X0481Y01679*
Y01659*
X04807Y01658*
X0479Y01617*
X04807Y01576*
X0481Y01575*
Y01555*
X04797Y01522*
X04939*
X04925Y01555*
Y01575*
X04928Y01576*
X04945Y01617*
X04928Y01658*
X04925Y01659*
Y01679*
X04939Y01712*
G37*
%LNindicator-3*%
%LPD*%
G54D10*
X06171Y01366D03*
Y01251D03*
X06023Y01366D03*
Y01251D03*
G54D16*
X05473Y02367D02*
X05646Y02194D01*
X05388Y02367D02*
X05473D01*
X05354Y02401D02*
X05388Y02367D01*
X05354Y02401D02*
Y02486D01*
X05905Y02194D02*
X06067Y02032D01*
Y01963D02*
Y02032D01*
Y01963D02*
X06151Y01879D01*
X06331Y01643D02*
X06352Y01622D01*
X06244Y01643D02*
X06331D01*
X06171Y01417D02*
Y01451D01*
Y01366D02*
Y01417D01*
X06176Y01422*
X06352*
X05754Y02434D02*
Y02486D01*
Y02434D02*
X05846Y02342D01*
X06053*
X0619Y02204*
Y02012D02*
Y02204D01*
Y02012D02*
X06244Y01958D01*
X05654Y02357D02*
Y02486D01*
Y02357D02*
X05738Y02273D01*
X06003*
X06131Y02145*
Y01988D02*
Y02145D01*
Y01988D02*
X062Y01919D01*
X06244*
X05646Y02194D02*
X05905D01*
X06151Y01879D02*
X06244D01*
X05854Y02086D02*
X05905D01*
X06023Y01968*
Y01919D02*
Y01968D01*
Y01919D02*
X06102Y0184D01*
X06244*
X05754Y02001D02*
Y02086D01*
Y02001D02*
X05797Y01958D01*
X05944*
X05654Y02003D02*
Y02086D01*
Y02003D02*
X05738Y01919D01*
X05944*
X05554Y01945D02*
Y02086D01*
Y01945D02*
X0562Y01879D01*
X05944*
X05452Y01968D02*
Y02085D01*
Y01968D02*
X0558Y0184D01*
X05944*
X06013Y01564D02*
X06053Y01525D01*
X05944Y01564D02*
X06013D01*
X0619D02*
X06244D01*
X06033Y01407D02*
X0619Y01564D01*
X06033Y01375D02*
Y01407D01*
X06023Y01366D02*
X06033Y01375D01*
X06171Y01451D02*
X06244Y01525D01*
X06062Y01692D02*
Y01712D01*
X06013Y01643D02*
X06062Y01692D01*
X06013Y01643D02*
D01*
X05944D02*
X06013D01*
X06122Y01604D02*
X06131Y01614D01*
X05944Y01604D02*
X06122D01*
X05828Y01525D02*
X05944D01*
X05818Y01515D02*
X05828Y01525D01*
X06023Y01251D02*
D01*
X04868Y01517D02*
X04869Y01515D01*
G54D17*
X05816Y01513D02*
X05818Y01515D01*
G54D18*
X06062Y01712D03*
X06053Y01525D03*
X06131Y01614D03*
X05452Y02244D03*
X05442Y0183D03*
G54D19*
X06352Y02322D03*
Y02222D03*
Y02122D03*
Y02022D03*
Y01922D03*
Y01822D03*
Y01722D03*
Y01622D03*
Y01522D03*
Y01422D03*
X04868Y01417D03*
Y01517D03*
Y01617D03*
Y01717D03*
Y01817D03*
Y01917D03*
Y02017D03*
Y02117D03*
Y02217D03*
Y02317D03*
G54D20*
X05696Y0122D03*
X05598D03*
X055D03*
G54D21*
X05818Y01515D03*
X05377D03*
G54D22*
X05854Y02086D03*
G54D23*
X05754Y02086D03*
X05654D03*
X05554D03*
X05454D03*
X05354D03*
X05854Y02486D03*
X05754D03*
X05654D03*
X05554D03*
X05454D03*
X05354D03*
G54D24*
X06377Y0122D03*
Y02559D03*
X04842D03*
Y0122D03*
G54D25*
X05944Y01525D03*
G54D26*
X05944Y01564D03*
Y01604D03*
Y01643D03*
Y01683D03*
Y01722D03*
Y01761D03*
Y01801D03*
Y0184D03*
Y01879D03*
Y01919D03*
Y01958D03*
X06244Y01525D03*
Y01564D03*
Y01604D03*
Y01643D03*
Y01683D03*
Y01722D03*
Y01761D03*
Y01801D03*
Y0184D03*
Y01879D03*
Y01919D03*
Y01958D03*
G54D27*
X05364Y0183D02*
X05442D01*
X05206Y01988D02*
X05364Y0183D01*
X05206Y01988D02*
Y02145D01*
X05305Y02244*
X05354D02*
X05452D01*
X05216Y02381D02*
X05354Y02244D01*
X05216Y02381D02*
Y02539D01*
X05275Y02598*
X06141*
X06352Y02387*
X05305Y02244D02*
X05354D01*
X06352Y02022D02*
X06353D01*
Y02387*
M02*