%FSTAX23Y23*%
%MOIN*%
%SFA1B1*%

%IPPOS*%
%ADD10R,0.070866X0.059055*%
%ADD11R,0.045275X0.023622*%
%ADD12R,0.023622X0.051181*%
%ADD13R,0.023622X0.045275*%
%ADD14R,0.059055X0.070866*%
%ADD15R,0.051181X0.023622*%
%ADD16C,0.023622*%
%ADD17C,0.039370*%
%ADD18C,0.078740*%
%ADD19O,0.118110X0.078740*%
%ADD20O,0.078740X0.118110*%
%ADD21C,0.137795*%
%ADD22R,0.070866X0.098425*%
%ADD23O,0.070866X0.098425*%
%ADD24C,0.098425*%
%LNindicator-1*%
%LPD*%
G36*
X06102Y02417D02*
X06129D01*
X06149Y02409*
X0615Y02407*
X06151Y02407*
X06159Y02387*
Y0237*
X06164*
Y02334*
X06169*
Y02329*
X06191*
Y02299*
X0618*
X06168Y02261*
X06192Y02245*
X06211Y02253*
X0627*
X06292Y02286*
X06281Y02312*
X06423*
X06409Y02279*
Y02259*
X06412Y02258*
X06429Y02217*
X06412Y02176*
X06409Y02175*
Y02155*
X06423Y02122*
X06352*
Y02112*
X06423*
X06409Y02079*
Y02059*
X06412Y02058*
X06429Y02017*
X06412Y01976*
X06409Y01975*
Y01955*
X06423Y01922*
X06352*
Y01912*
X06423*
X06409Y01879*
Y01859*
X06412Y01858*
X06429Y01817*
X06412Y01776*
X06409Y01775*
Y01755*
X06423Y01722*
X06352*
Y01712*
X06423*
X06409Y01679*
Y01659*
X06412Y01658*
X06429Y01617*
X06412Y01576*
X06409Y01575*
Y01555*
X06423Y01522*
X06352*
Y01512*
X06423*
X06409Y01479*
Y01459*
X06412Y01458*
X06429Y01417*
X06412Y01376*
X06372Y01359*
X06332*
X06292Y01376*
X0629Y01381*
X06196*
X06009Y01194*
X05984Y01184*
X05771*
X05761Y0116*
X0572Y01143*
X05679Y0116*
X05678Y01163*
X05659*
X05627Y01149*
Y0122*
X05617*
Y01149*
X05584Y01163*
X05565*
X05564Y0116*
X05523Y01143*
X05482Y0116*
X05466Y012*
Y0124*
X05482Y0128*
X05487Y01282*
Y01326*
X05498Y01352*
X05549Y01403*
X05574Y01414*
X0578*
X05788Y01452*
X05782Y01455*
X05759Y0151*
X05842*
Y01515*
X05847*
Y01599*
X05902Y01576*
X05904Y01572*
X05942Y0158*
Y01643*
X0596*
X05962Y01649*
X05966Y01659*
X06001Y01694*
Y0172*
Y0172*
X06005Y01747*
Y01748*
Y01764*
X06041*
Y01774*
X06005*
Y01783*
X05826*
X05814Y01788*
X05777Y01773*
X05736Y0179*
X0572Y0183*
X05736Y01871*
X05765Y01883*
Y01978*
X05838*
Y0202*
X05803Y02035*
X05766Y02019*
X05728Y02035*
X05703*
X05666Y02019*
X05628Y02035*
X05603*
X05566Y02019*
X05528Y02035*
X05503*
X05466Y02019*
X05456Y02023*
X05415*
X05316*
Y02149*
X05341*
X05356Y02186*
X05349Y02192*
X0535Y02208*
X05334Y02226*
Y02256*
X05356*
Y02266*
X05334*
Y02297*
Y02306*
X05306Y02334*
X05275*
X05256Y02342*
X05247Y02362*
Y02385*
X05226*
X05206Y02366*
Y02359*
X05185*
Y02349*
X05206*
Y02318*
Y02284*
X05215Y02276*
Y01732*
X05236*
Y01496*
Y01259*
X05*
Y01102*
X06496*
Y02677*
X06102*
Y02417*
G37*
%LNindicator-2*%
%LPC*%
G36*
X06372Y01282D02*
Y01225D01*
X06315*
X06332Y01265*
X06372Y01282*
G37*
G36*
X05406Y0151D02*
X05484D01*
X05461Y01455*
X05406Y01432*
Y0151*
G37*
G36*
X05318D02*
X05396D01*
Y01432*
X05341Y01455*
X05318Y0151*
G37*
G36*
X06382Y01215D02*
X06439D01*
X06423Y01175*
X06382Y01158*
Y01215*
G37*
G36*
X06315D02*
X06372D01*
Y01158*
X06332Y01175*
X06315Y01215*
G37*
G36*
X06382Y01282D02*
X06423Y01265D01*
X06439Y01225*
X06382*
Y01282*
G37*
G36*
X06332Y0237D02*
X06347D01*
Y02322*
X06281*
X06294Y02355*
X06332Y0237*
G37*
G36*
X06174Y0237D02*
X06191D01*
Y02339*
X06174*
Y0237*
G37*
G36*
X06377Y02627D02*
X06426Y02607D01*
X06446Y02559*
X06426Y0251*
X06377Y0249*
X06329Y0251*
X06309Y02559*
X06329Y02607*
X06377Y02627*
G37*
G36*
X06357Y0237D02*
X06372D01*
X06409Y02355*
X06423Y02322*
X06357*
Y0237*
G37*
G36*
X05837Y01599D02*
Y0152D01*
X05759*
X05782Y01576*
X05837Y01599*
G37*
G36*
X05406D02*
X05461Y01576D01*
X05484Y0152*
X05406*
Y01599*
G37*
G36*
X05396D02*
Y0152D01*
X05318*
X05341Y01576*
X05396Y01599*
G37*
%LNindicator-3*%
%LPD*%
G54D10*
X05Y02537D03*
Y02423D03*
X05059Y02137D03*
Y02251D03*
X05275Y02543D03*
Y02428D03*
X05984Y02275D03*
Y02389D03*
G54D11*
X05093Y02482D03*
Y02557D03*
X05182Y02519D03*
X0589Y02379D03*
Y02305D03*
X05802Y02342D03*
X06126Y01907D03*
Y01832D03*
X06038Y0187D03*
G54D12*
X0511Y02354D03*
X05185D03*
X05147Y02271D03*
X05431Y02261D03*
X05356D03*
X05393Y02344D03*
X06094Y02334D03*
X06169D03*
X06131Y02251D03*
G54D13*
X05631Y02367D03*
X05706D03*
X05669Y02278D03*
G54D14*
X06159Y02047D03*
X06045D03*
X06159Y02165D03*
X06045D03*
X05809Y01929D03*
X05923D03*
X061Y01594D03*
X05986D03*
G54D15*
X06041Y01694D03*
Y01769D03*
X06124Y01732D03*
G54D16*
X06131Y02251D02*
Y02387D01*
X04868Y01722D02*
X04868Y01722D01*
X06094Y02334D02*
X06045Y02285D01*
Y02165D02*
Y02285D01*
X05411Y02362D02*
X05275D01*
X05866Y0185D02*
Y02086D01*
X06041Y01694D02*
X05986Y01639D01*
Y01594D02*
Y01639D01*
X06183Y01907D02*
X06126D01*
X062Y01889D02*
X06183Y01907D01*
X062Y01809D02*
Y01889D01*
Y01809D02*
X06124Y01732D01*
X06126Y01907D02*
X06105Y01929D01*
X05923*
X05826Y01811D02*
X05809Y01828D01*
X06082Y01811D02*
X05826D01*
X06104Y01832D02*
X06082Y01811D01*
X06126Y01832D02*
X06104D01*
X06018Y0185D02*
X05866D01*
X06038Y0187D02*
X06018Y0185D01*
X05433Y02259D02*
X05431Y02261D01*
X05433Y02185D02*
Y02259D01*
X05452Y02165D02*
X05433Y02185D01*
X05925Y02165D02*
X05452D01*
X05944Y02145D02*
X05925Y02165D01*
X05944Y02086D02*
Y02145D01*
X05984Y02047D02*
X05944Y02086D01*
X06045Y02047D02*
X05984D01*
X05416Y02367D02*
X05411Y02362D01*
X05275D02*
Y02428D01*
X05631Y02367D02*
X05416D01*
X05669Y02278D02*
Y02483D01*
X05019Y02557D02*
X05Y02537D01*
X05275Y02543D02*
X05261Y02557D01*
X05366Y02486D02*
X05365Y02486D01*
X05231*
X05197Y02519*
X05182*
X05866Y02042D02*
Y02086D01*
X05147Y02271D02*
Y02431D01*
X05096Y02482*
X05093*
X05034Y02423D02*
X05D01*
X05093Y02482D02*
X05034Y02423D01*
X05809Y01828D02*
Y01929D01*
X05766Y02378D02*
Y02486D01*
X05802Y02342D02*
X05766Y02378D01*
X05974Y02379D02*
X0589D01*
X05984Y02389D02*
X05974Y02379D01*
X06129Y02389D02*
X05984D01*
X05895Y023D02*
X0589Y02305D01*
X05895Y02273D02*
Y023D01*
X05982Y02273D02*
X05895D01*
X05984Y02275D02*
X05982Y02273D01*
X05895Y02244D02*
Y02273D01*
Y02244D02*
X05767D01*
Y02306*
X05706Y02367*
X04871Y01919D02*
X04868Y01922D01*
X0511Y02354D02*
X05059Y02303D01*
Y02251D02*
Y02303D01*
X05093Y02557D02*
X05088Y02562D01*
X05093Y02557D02*
Y02603D01*
X06352Y02317D02*
X06335Y02334D01*
G54D17*
X05051Y01958D02*
Y0213D01*
Y01958D02*
X05016Y01922D01*
X04868*
X0487Y01525D02*
X04868Y01522D01*
X05167Y01525D02*
X0487D01*
X0498Y01722D02*
X04868D01*
X05088Y01614D02*
X0498Y01722D01*
X05047Y01822D02*
X04868D01*
X05157Y01712D02*
X05047Y01822D01*
X05275Y02543D02*
Y02608D01*
X05Y02537D02*
Y02608D01*
Y02537D02*
X04978D01*
X04868Y02427*
Y02322D02*
Y02427D01*
X05275Y02608D02*
X05D01*
X05523Y0122D02*
Y01326D01*
X05574Y01377D02*
X05523Y01326D01*
X06023Y01377D02*
X05574D01*
X06262Y01617D02*
X06023Y01377D01*
X06352Y01617D02*
X06262D01*
X06352Y01417D02*
X06181D01*
X05984Y0122*
X0572*
X06352Y02217D02*
X06211D01*
X06159Y02165*
X06352Y02017D02*
X06189D01*
X06159Y02047*
X06323Y01817D02*
X061Y01594D01*
X06352Y01817D02*
X06323D01*
G54D18*
X05157Y01712D03*
X05167Y01525D03*
X05088Y01614D03*
X05767Y02244D03*
X05777Y0183D03*
G54D19*
X04868Y02322D03*
Y02222D03*
Y02122D03*
Y02022D03*
Y01922D03*
Y01822D03*
Y01722D03*
Y01622D03*
Y01522D03*
Y01422D03*
X06352Y01417D03*
Y01517D03*
Y01617D03*
Y01717D03*
Y01817D03*
Y01917D03*
Y02017D03*
Y02117D03*
Y02217D03*
Y02317D03*
G54D20*
X05523Y0122D03*
X05622D03*
X0572D03*
G54D21*
X05401Y01515D03*
X05842D03*
G54D22*
X05366Y02086D03*
G54D23*
X05466Y02086D03*
X05566D03*
X05666D03*
X05766D03*
X05866D03*
X05366Y02486D03*
X05466D03*
X05566D03*
X05666D03*
X05766D03*
X05866D03*
G54D24*
X04842Y0122D03*
Y02559D03*
X06377D03*
Y0122D03*
M02*